#!OML:ASF F:\VICON\USERDATA\INSTALL\rory3\rory3.ASF
:FULLY-SPECIFIED
:DEGREES
2511
root 7.166 18.8977 0.0459422 162.081 -75.4408 -145.817
lowerback 13.8863 -1.94911 -5.82762
upperback 6.64078 -3.74297 -2.60477
thorax -0.579186 -2.11952 1.07501
lowerneck -6.71971 9.34879 -5.03851
upperneck 28.0014 12.2803 1.51882
head 9.51427 4.86675 2.46232
rclavicle 3.02153e-014 -5.08889e-014
rhumerus 0.629894 31.1972 -69.3088
rradius 138.641
rwrist -19.8002
rhand -28.9844 -4.47119
rfingers 7.12502
rthumb -2.33662 -34.4381
lclavicle 3.02153e-014 -5.08889e-014
lhumerus 7.27231 -38.5626 92.4164
lradius 40.4726
lwrist 7.38909
lhand -30.9985 13.2642
lfingers 7.12502
lthumb -4.28165 43.2009
rfemur -32.2691 23.3951 11.5902
rtibia 28.0733
rfoot -12.9631 -13.0358
rtoes 0.0182057
lfemur -30.4176 11.9628 -19.397
ltibia 31.1351
lfoot -18.1964 18.7665
ltoes 4.49661
2512
root 7.20447 18.8867 0.0561106 161.711 -75.159 -145.391
lowerback 13.868 -2.00679 -5.59021
upperback 6.68185 -3.79568 -2.7562
thorax -0.550825 -2.1421 0.79067
lowerneck -6.73684 9.38992 -4.97532
upperneck 27.7638 12.3054 1.64211
head 9.42493 4.91422 2.48783
rclavicle -6.36111e-014 -3.49861e-014
rhumerus 0.357901 31.6226 -69.9124
rradius 137.791
rwrist -19.2544
rhand -29.0629 -3.79817
rfingers 7.12502
rthumb -2.41246 -33.7643
lclavicle -6.36111e-014 -3.49861e-014
lhumerus 7.60887 -38.3337 92.1802
lradius 39.4203
lwrist 7.1879
lhand -30.3801 12.79
lfingers 7.12502
lthumb -3.68452 42.7379
rfemur -31.7618 23.2365 12.3578
rtibia 28.4583
rfoot -13.2447 -13.0862
rtoes -0.535104
lfemur -30.8467 12.2096 -19.1904
ltibia 31.6639
lfoot -18.3298 18.5753
ltoes 4.60038
2513
root 7.24224 18.8788 0.064057 160.293 -74.802 -143.955
lowerback 13.8635 -2.08366 -5.20867
upperback 6.77456 -3.84762 -2.71452
thorax -0.472372 -2.16502 0.625744
lowerneck -6.8596 9.44229 -5.17137
upperneck 27.5718 12.3895 1.80228
head 9.34982 4.96466 2.57755
rclavicle -1.59028e-015 -4.13472e-014
rhumerus 0.193777 32.273 -70.168
rradius 136.991
rwrist -18.792
rhand -29.9564 -3.2786
rfingers 7.12502
rthumb -3.27535 -33.2332
lclavicle -1.59028e-015 -4.13472e-014
lhumerus 7.99702 -38.0068 92.0168
lradius 38.3577
lwrist 7.04872
lhand -30.0929 12.6071
lfingers 7.12502
lthumb -3.40713 42.5597
rfemur -31.1437 23.265 13.4121
rtibia 28.8096
rfoot -13.6093 -13.2899
rtoes -0.981804
lfemur -31.1925 12.2142 -18.5925
ltibia 32.206
lfoot -18.1886 18.8051
ltoes 3.54408
2514
root 7.28109 18.8681 0.0713035 159.001 -74.5733 -142.644
lowerback 13.8914 -2.22532 -4.7898
upperback 6.85869 -3.9849 -2.73534
thorax -0.424458 -2.22731 0.388427
lowerneck -7.08814 9.53416 -5.20714
upperneck 27.5538 12.5234 1.8999
head 9.37038 5.03469 2.63905
rclavicle 4.77083e-015 -1.27222e-014
rhumerus 0.000240057 32.8513 -70.6048
rradius 136.084
rwrist -18.1186
rhand -30.6746 -2.88811
rfingers 7.12502
rthumb -3.96894 -32.8309
lclavicle 4.77083e-015 -1.27222e-014
lhumerus 8.28557 -37.6921 91.7595
lradius 37.4059
lwrist 6.80319
lhand -30.1974 12.4135
lfingers 7.12502
lthumb -3.50808 42.3644
rfemur -30.5063 23.2128 14.3957
rtibia 29.1562
rfoot -14.0041 -13.6031
rtoes -1.00441
lfemur -31.5678 12.28 -18.1154
ltibia 32.722
lfoot -18.0024 18.7838
ltoes 2.49525
2515
root 7.31828 18.8555 0.0819902 158.518 -74.3931 -142.143
lowerback 13.95 -2.34442 -4.50186
upperback 6.87129 -4.11443 -2.84453
thorax -0.467127 -2.28373 0.135678
lowerneck -7.11343 9.61513 -5.0871
upperneck 27.425 12.6247 1.88235
head 9.3349 5.09883 2.61975
rclavicle 1.74931e-014 2.54444e-014
rhumerus -0.395089 33.1936 -71.2739
rradius 135.156
rwrist -17.6104
rhand -30.8191 -2.63042
rfingers 7.12502
rthumb -4.10847 -32.5706
lclavicle 1.74931e-014 2.54444e-014
lhumerus 8.46304 -37.43 91.4945
lradius 36.4682
lwrist 6.41884
lhand -30.1748 12.2166
lfingers 7.12502
lthumb -3.48627 42.1678
rfemur -29.9129 22.8258 15.226
rtibia 29.5567
rfoot -14.2463 -13.5527
rtoes -1.21093
lfemur -31.9046 12.3836 -17.9148
ltibia 33.1191
lfoot -18.0457 18.6687
ltoes 2.59292
2516
root 7.35509 18.8436 0.0976441 158.595 -74.2074 -142.199
lowerback 13.9901 -2.42458 -4.40505
upperback 6.88519 -4.21436 -2.91508
thorax -0.483321 -2.33115 0.0239539
lowerneck -7.21757 9.70567 -5.17857
upperneck 27.3255 12.7617 1.94892
head 9.30189 5.16695 2.66891
rclavicle -6.04305e-014 9.54166e-015
rhumerus -0.689242 33.5357 -71.704
rradius 134.298
rwrist -17.2154
rhand -31.0885 -2.57974
rfingers 7.12502
rthumb -4.36863 -32.5147
lclavicle -6.04305e-014 9.54166e-015
lhumerus 8.77397 -37.2651 91.1765
lradius 35.4856
lwrist 6.10342
lhand -29.9275 12.1885
lfingers 7.12502
lthumb -3.24747 42.1435
rfemur -29.3931 22.503 15.8596
rtibia 30.0378
rfoot -14.4609 -13.4071
rtoes -1.31827
lfemur -32.1979 12.5275 -17.8844
ltibia 33.396
lfoot -18.1206 18.6284
ltoes 2.75459
2517
root 7.39363 18.8337 0.117278 160.287 -74.1568 -143.887
lowerback 13.9855 -2.47955 -4.71187
upperback 6.88925 -4.33671 -3.12195
thorax -0.465322 -2.39922 -0.00516244
lowerneck -7.34045 9.7857 -5.27589
upperneck 27.2488 12.8972 1.96922
head 9.28396 5.22669 2.70557
rclavicle 2.06736e-014 6.67916e-014
rhumerus -0.873624 33.8542 -72.0365
rradius 133.388
rwrist -16.8561
rhand -31.636 -2.57293
rfingers 7.12502
rthumb -4.89726 -32.4963
lclavicle 2.06736e-014 6.67916e-014
lhumerus 9.12165 -37.3192 90.6092
lradius 34.6358
lwrist 5.98168
lhand -29.7832 11.9039
lfingers 7.12502
lthumb -3.10808 41.861
rfemur -28.9705 22.1313 15.9528
rtibia 30.5534
rfoot -14.6776 -13.1534
rtoes -0.992705
lfemur -32.4432 12.5157 -18.341
ltibia 33.5597
lfoot -18.1125 18.8086
ltoes 2.60804
2518
root 7.43213 18.8214 0.131362 161.411 -74.0899 -144.996
lowerback 13.9697 -2.51869 -4.77942
upperback 6.89459 -4.4091 -3.36008
thorax -0.46291 -2.43643 -0.206464
lowerneck -7.32059 9.82198 -5.15165
upperneck 27.0548 12.9455 1.90632
head 9.2236 5.26688 2.66135
rclavicle -4.6118e-014 4.77083e-014
rhumerus -1.16799 33.9393 -72.4897
rradius 132.419
rwrist -16.5011
rhand -32.32 -2.62044
rfingers 7.12502
rthumb -5.55766 -32.5276
lclavicle -4.6118e-014 4.77083e-014
lhumerus 9.564 -37.8008 89.76
lradius 33.7874
lwrist 5.82819
lhand -29.4523 11.5004
lfingers 7.12502
lthumb -2.78848 41.4619
rfemur -28.5352 21.7952 16.1893
rtibia 31.0588
rfoot -14.9078 -12.9316
rtoes -1.36644
lfemur -32.6635 12.4601 -18.6135
ltibia 33.7017
lfoot -18.1939 18.8679
ltoes 3.04555
2519
root 7.46878 18.8118 0.142109 161.326 -73.9824 -144.87
lowerback 13.9759 -2.58967 -4.52869
upperback 6.89714 -4.47794 -3.49176
thorax -0.492446 -2.46359 -0.472021
lowerneck -7.30452 9.86867 -4.98746
upperneck 26.9195 13.0132 1.78977
head 9.19174 5.30979 2.59791
rclavicle -2.54444e-014 8.5875e-014
rhumerus -1.57206 33.9664 -73.0525
rradius 131.453
rwrist -16.2852
rhand -32.9114 -2.7186
rfingers 7.12502
rthumb -6.12871 -32.61
lclavicle -2.54444e-014 8.5875e-014
lhumerus 10.0765 -38.5169 88.767
lradius 32.9668
lwrist 5.54663
lhand -29.1853 11.3941
lfingers 7.12502
lthumb -2.53064 41.3588
rfemur -28.0726 21.6453 16.7285
rtibia 31.5476
rfoot -15.2886 -12.77
rtoes -0.941581
lfemur -32.8878 12.3892 -18.5346
ltibia 33.8065
lfoot -18.0808 19.0133
ltoes 2.98768
2520
root 7.50786 18.7983 0.150801 161.309 -73.8493 -144.782
lowerback 13.9582 -2.70973 -4.34206
upperback 6.88634 -4.61395 -3.57406
thorax -0.513545 -2.52519 -0.642676
lowerneck -7.41852 9.9932 -4.9172
upperneck 26.9391 13.2122 1.66644
head 9.22871 5.39205 2.57117
rclavicle 3.33958e-014 -1.27222e-014
rhumerus -1.99643 34.1092 -73.7002
rradius 130.466
rwrist -16.063
rhand -33.2252 -2.38294
rfingers 7.12502
rthumb -6.4316 -32.2653
lclavicle 3.33958e-014 -1.27222e-014
lhumerus 10.5738 -39.1459 87.6244
lradius 32.3057
lwrist 5.26555
lhand -29.2616 11.7148
lfingers 7.12502
lthumb -2.60435 41.6787
rfemur -27.6225 21.4564 17.2863
rtibia 31.9476
rfoot -15.5458 -12.565
rtoes -0.373742
lfemur -33.1712 12.337 -18.4588
ltibia 33.9598
lfoot -17.9966 19.1666
ltoes 2.47305
2521
root 7.54277 18.7913 0.155852 162.098 -73.7062 -145.616
lowerback 13.9471 -2.7865 -4.45463
upperback 6.89416 -4.73689 -3.71519
thorax -0.499847 -2.58939 -0.711496
lowerneck -7.40873 10.135 -4.85935
upperneck 26.8515 13.4175 1.57289
head 9.20135 5.48634 2.54446
rclavicle 3.49861e-014 -3.49861e-014
rhumerus -2.31177 34.236 -74.2999
rradius 129.431
rwrist -15.8195
rhand -33.3174 -2.23416
rfingers 7.12502
rthumb -6.52059 -32.1138
lclavicle 3.49861e-014 -3.49861e-014
lhumerus 11.0042 -39.5223 86.479
lradius 31.6112
lwrist 4.5146
lhand -28.8851 11.4151
lfingers 7.12502
lthumb -2.24077 41.3831
rfemur -27.0545 21.3247 17.6259
rtibia 32.2778
rfoot -15.7681 -12.342
rtoes -0.501735
lfemur -33.3098 12.3593 -18.6
ltibia 34.1043
lfoot -17.9941 19.3259
ltoes 2.43497
2522
root 7.57718 18.7859 0.159988 162.53 -73.4987 -146.092
lowerback 13.9107 -2.82961 -4.49204
upperback 6.92134 -4.80133 -3.79329
thorax -0.454325 -2.62426 -0.766861
lowerneck -7.35397 10.2475 -4.82869
upperneck 26.7099 13.5909 1.45088
head 9.1487 5.56444 2.50511
rclavicle -7.79236e-014 -3.18055e-014
rhumerus -2.59976 34.2263 -74.7703
rradius 128.399
rwrist -15.723
rhand -33.3514 -2.06357
rfingers 7.12502
rthumb -6.55346 -31.9422
lclavicle -7.79236e-014 -3.18055e-014
lhumerus 11.4538 -39.6264 85.449
lradius 30.7853
lwrist 3.0859
lhand -28.9773 12.1521
lfingers 7.12502
lthumb -2.3298 42.1191
rfemur -26.447 21.2995 18.0787
rtibia 32.5365
rfoot -16.0696 -12.1303
rtoes -0.777428
lfemur -33.4351 12.5154 -18.6409
ltibia 34.2456
lfoot -17.7166 19.4424
ltoes 1.76994
